<?xml version="1.0" encoding="utf-8"?>
<!-- Generator: Adobe Illustrator 16.0.0, SVG Export Plug-In . SVG Version: 6.00 Build 0)  -->
<!DOCTYPE svg PUBLIC "-//W3C//DTD SVG 1.1//EN" "http://www.w3.org/Graphics/SVG/1.1/DTD/svg11.dtd">
<svg version="1.1" id="Capa_1" xmlns="http://www.w3.org/2000/svg" xmlns:xlink="http://www.w3.org/1999/xlink" x="0px" y="0px"
	 width="160px" height="44px" viewBox="7.833 6.167 160 44" enable-background="new 7.833 6.167 160 44" xml:space="preserve">
<polygon fill="#001A45" points="108.707,12.879 108.707,20.852 116.687,20.852 116.687,44.983 125.33,44.983 125.33,20.892 
	129.717,20.905 138.229,12.879 "/>
<path fill="#001A45" d="M152.517,12.879v8.182h-8.204c0,0-2.522-0.286-2.688,1.877c0,0,0.167,2.006,2.716,1.927l8.176,0.004
	c0,0,7.132,0.336,9.051,7.737c0,0,2.194,10.163-8.612,12.169h-10.865l-8.395-8.052l17.751-0.026c0,0,1.975-0.444,1.754-2.137
	c0,0-0.246-1.564-2.25-1.589h-8.42c0,0-6.585-0.522-8.835-6.541c0,0-3.457-11.258,8.507-13.55H152.517z"/>
<path fill="#001A45" d="M159.754,12.905c0.65,0,1.273,0.162,1.87,0.487c0.597,0.325,1.066,0.791,1.407,1.397
	c0.341,0.606,0.512,1.241,0.512,1.904c0,0.659-0.167,1.289-0.502,1.887s-0.801,1.065-1.399,1.4
	c-0.599,0.334-1.228,0.502-1.887,0.502c-0.659,0-1.288-0.168-1.886-0.502c-0.598-0.334-1.065-0.801-1.399-1.4
	c-0.335-0.599-0.502-1.228-0.502-1.887c0-0.663,0.171-1.297,0.512-1.904c0.341-0.607,0.81-1.073,1.407-1.397
	C158.482,13.067,159.105,12.905,159.754,12.905 M159.76,13.646c-0.521,0-1.02,0.13-1.499,0.391c-0.478,0.261-0.854,0.635-1.13,1.123
	c-0.275,0.488-0.413,0.999-0.413,1.533c0,0.531,0.134,1.037,0.403,1.518c0.269,0.481,0.644,0.857,1.125,1.128
	c0.481,0.27,0.985,0.406,1.513,0.406c0.531,0,1.036-0.136,1.516-0.406c0.48-0.271,0.854-0.646,1.125-1.128
	c0.27-0.481,0.405-0.987,0.405-1.518c0-0.534-0.137-1.045-0.413-1.533c-0.275-0.488-0.653-0.862-1.133-1.123
	S160.281,13.646,159.76,13.646 M158.043,18.721V14.7h0.816c0.765,0,1.193,0.003,1.286,0.01c0.27,0.023,0.48,0.077,0.63,0.161
	c0.15,0.083,0.275,0.212,0.376,0.386c0.101,0.173,0.151,0.365,0.151,0.576c0,0.291-0.095,0.538-0.285,0.744
	c-0.189,0.206-0.456,0.334-0.798,0.383c0.122,0.046,0.216,0.096,0.282,0.151c0.066,0.054,0.157,0.158,0.272,0.309
	c0.03,0.04,0.128,0.203,0.296,0.489l0.475,0.812h-1.008l-0.336-0.653c-0.228-0.438-0.415-0.715-0.564-0.829
	c-0.148-0.114-0.336-0.17-0.563-0.17h-0.213v1.652H158.043L158.043,18.721z M158.86,16.436h0.331c0.472,0,0.764-0.018,0.878-0.055
	c0.114-0.036,0.204-0.1,0.27-0.19c0.066-0.091,0.099-0.194,0.099-0.31c0-0.112-0.032-0.212-0.096-0.299
	c-0.064-0.087-0.156-0.15-0.275-0.188c-0.118-0.038-0.41-0.057-0.875-0.057h-0.331V16.436L158.86,16.436z"/>
<path fill="#C23435" d="M14.5,27.365"/>
<path fill="#BF0411" d="M80.922,24.685c0-6.831-5.538-12.37-12.369-12.37c-3.115,0-5.958,1.154-8.133,3.054
	c-2.174-1.9-5.018-3.054-8.132-3.054c-6.831,0-12.37,5.538-12.37,12.37l0.009,13.271l8.614,3.599v-17.48
	c0-2.11,1.711-3.821,3.821-3.821s3.821,1.711,3.821,3.821v0.542c0,0.023-0.001,0.046-0.001,0.069h0.002l0.002,15.907l8.462,3.544
	l0.011-20.062c0-2.11,1.711-3.821,3.821-3.821s3.821,1.711,3.821,3.821l0.005,16.518l8.614,3.599L80.922,24.685z"/>
<g>
	<polygon fill="#BF0411" points="92.271,37.7 92.271,45.413 110.843,45.413 	"/>
	<path fill="#001A45" d="M110.373,44.041l-16.179-6.983v-0.5h7.526v-0.006v-7.726c0-4.564-3.7-8.264-8.263-8.264l0,0
		c-4.564,0-8.265,3.7-8.265,8.264v15.633h-8.891V29.245c0-9.409,7.627-17.037,17.037-17.037l0,0c9.408,0,17.035,7.628,17.035,17.037
		V44.041L110.373,44.041z"/>
</g>
<g>
	<polygon fill="#BF0411" points="30.469,37.7 30.469,45.413 49.042,45.413 	"/>
	<path fill="#001A45" d="M48.572,44.041l-16.179-6.983v-0.5h7.525v-0.006v-7.726c0-4.564-3.7-8.264-8.263-8.264l0,0
		c-4.564,0-8.264,3.7-8.264,8.264v15.633H14.5V29.245c0-9.409,7.627-17.037,17.037-17.037l0,0c9.408,0,17.035,7.628,17.035,17.037
		V44.041L48.572,44.041z"/>
</g>
</svg>
